<?xml version="1.0" encoding="UTF-8"?>
<!DOCTYPE svg PUBLIC "-//W3C//DTD SVG 1.1//EN" "http://www.w3.org/Graphics/SVG/1.1/DTD/svg11.dtd">
<svg xmlns="http://www.w3.org/2000/svg" version="1.1" width="657px" height="485px" style="shape-rendering:geometricPrecision; text-rendering:geometricPrecision; image-rendering:optimizeQuality; fill-rule:evenodd; clip-rule:evenodd" xmlns:xlink="http://www.w3.org/1999/xlink">
<g><path style="opacity:1" fill="#fefcfc" d="M -0.5,-0.5 C 218.5,-0.5 437.5,-0.5 656.5,-0.5C 656.5,161.167 656.5,322.833 656.5,484.5C 437.5,484.5 218.5,484.5 -0.5,484.5C -0.5,322.833 -0.5,161.167 -0.5,-0.5 Z"/></g>
<g><path style="opacity:1" fill="#e52126" d="M 348.5,50.5 C 348.5,76.5 348.5,102.5 348.5,128.5C 346.585,128.216 344.919,128.549 343.5,129.5C 343.167,129.5 342.833,129.5 342.5,129.5C 340.833,129.5 339.167,129.5 337.5,129.5C 337.831,105.328 337.498,81.3275 336.5,57.5C 336.5,55.5 336.5,53.5 336.5,51.5C 333.833,51.5 331.167,51.5 328.5,51.5C 328.167,78.5082 328.5,105.508 329.5,132.5C 336.413,133.518 342.246,136.518 347,141.5C 347.791,142.745 348.291,144.078 348.5,145.5C 349.465,172.141 349.798,198.808 349.5,225.5C 345.13,239.326 336.13,243.493 322.5,238C 318.634,234.748 316.467,230.581 316,225.5C 315.5,200.169 315.333,174.836 315.5,149.5C 319.5,149.5 323.5,149.5 327.5,149.5C 327.333,174.502 327.5,199.502 328,224.5C 329.845,228.795 332.512,229.462 336,226.5C 336.5,199.835 336.667,173.169 336.5,146.5C 334.585,146.784 332.919,146.451 331.5,145.5C 327.792,144.037 324.126,142.37 320.5,140.5C 318.276,137.847 316.609,134.847 315.5,131.5C 315.201,104.141 315.535,76.808 316.5,49.5C 322.527,38.4399 331.193,35.9399 342.5,42C 345.523,44.1775 347.523,47.0108 348.5,50.5 Z"/></g>
<g><path style="opacity:1" fill="#e51e25" d="M 454.5,38.5 C 463.993,37.8561 470.493,41.8561 474,50.5C 474.667,109.833 474.667,169.167 474,228.5C 468.776,240.53 460.276,243.697 448.5,238C 445.727,235.617 443.561,232.783 442,229.5C 441.333,169.167 441.333,108.833 442,48.5C 444.887,43.4341 449.054,40.1008 454.5,38.5 Z"/></g>
<g><path style="opacity:1" fill="#e52026" d="M 390.5,50.5 C 390.5,113.167 390.5,175.833 390.5,238.5C 386.833,238.5 383.167,238.5 379.5,238.5C 379.831,207.662 379.498,176.995 378.5,146.5C 375.833,145.167 373.167,145.167 370.5,146.5C 370.5,177.5 370.5,208.5 370.5,239.5C 366.167,239.5 361.833,239.5 357.5,239.5C 357.333,176.166 357.5,112.832 358,49.5C 364.401,38.4782 373.234,35.9782 384.5,42C 387.523,44.1775 389.523,47.0108 390.5,50.5 Z"/></g>
<g><path style="opacity:1" fill="#ec5351" d="M 418.5,40.5 C 412.5,40.5 406.5,40.5 400.5,40.5C 400.5,106.5 400.5,172.5 400.5,238.5C 407.5,238.5 414.5,238.5 421.5,238.5C 417.258,239.968 412.758,240.634 408,240.5C 404.914,240.478 401.914,240.145 399,239.5C 398.5,172.834 398.333,106.167 398.5,39.5C 405.354,39.176 412.021,39.5093 418.5,40.5 Z"/></g>
<g><path style="opacity:1" fill="#e52328" d="M 418.5,40.5 C 425.572,41.7014 430.238,45.7014 432.5,52.5C 433.473,78.1477 433.806,103.814 433.5,129.5C 431.96,131.838 431.294,134.505 431.5,137.5C 430.353,140.289 430.853,142.956 433,145.5C 433.667,171.833 433.667,198.167 433,224.5C 431.742,231.382 427.909,236.049 421.5,238.5C 414.5,238.5 407.5,238.5 400.5,238.5C 400.5,172.5 400.5,106.5 400.5,40.5C 406.5,40.5 412.5,40.5 418.5,40.5 Z"/></g>
<g><path style="opacity:1" fill="#e52026" d="M 516.5,239.5 C 512.5,239.5 508.5,239.5 504.5,239.5C 504.831,208.329 504.498,177.329 503.5,146.5C 501.052,145.527 498.385,145.194 495.5,145.5C 495.179,151.026 495.512,156.36 496.5,161.5C 496.687,187.51 496.354,213.51 495.5,239.5C 491.5,239.5 487.5,239.5 483.5,239.5C 483.5,173.167 483.5,106.833 483.5,40.5C 490.722,39.1371 498.055,39.3038 505.5,41C 510.333,43.1667 513.833,46.6667 516,51.5C 516.667,78.8333 516.667,106.167 516,133.5C 515.443,135.615 514.609,137.615 513.5,139.5C 514.609,141.385 515.443,143.385 516,145.5C 516.5,176.832 516.667,208.165 516.5,239.5 Z"/></g>
<g><path style="opacity:1" fill="#feeded" d="M 377.5,50.5 C 378.491,78.0927 378.824,105.759 378.5,133.5C 375.77,134.817 372.937,134.817 370,133.5C 369.333,106.833 369.333,80.1667 370,53.5C 370.374,52.5838 370.874,51.7504 371.5,51C 373.473,50.5045 375.473,50.3379 377.5,50.5 Z"/></g>
<g><path style="opacity:1" fill="#fefefe" d="M 414.5,51.5 C 415.167,51.5 415.833,51.5 416.5,51.5C 417.209,52.404 418.209,52.7373 419.5,52.5C 419.5,79.1667 419.5,105.833 419.5,132.5C 418.791,133.404 417.791,133.737 416.5,133.5C 415.5,133.5 414.5,133.5 413.5,133.5C 413.169,105.995 413.502,78.6616 414.5,51.5 Z"/></g>
<g><path style="opacity:1" fill="#feefef" d="M 461.5,50.5 C 462.806,109.559 462.806,168.559 461.5,227.5C 458.946,228.388 456.279,228.721 453.5,228.5C 453.333,169.499 453.5,110.499 454,51.5C 456.381,50.565 458.881,50.2317 461.5,50.5 Z"/></g>
<g><path style="opacity:1" fill="#fefefe" d="M 500.5,133.5 C 499.167,133.5 497.833,133.5 496.5,133.5C 496.5,106.5 496.5,79.5 496.5,52.5C 498.357,51.2463 500.357,51.2463 502.5,52.5C 503.667,79.1604 503.833,105.827 503,132.5C 502.329,133.252 501.496,133.586 500.5,133.5 Z"/></g>
<g><path style="opacity:1" fill="#f7bcbe" d="M 496.5,52.5 C 496.5,79.5 496.5,106.5 496.5,133.5C 497.833,133.5 499.167,133.5 500.5,133.5C 499.081,134.451 497.415,134.784 495.5,134.5C 495.169,106.995 495.502,79.6616 496.5,52.5 Z"/></g>
<g><path style="opacity:1" fill="#e51e24" d="M 276.5,454.5 C 197.571,455.497 118.571,455.83 39.5,455.5C 39.5,324.833 39.5,194.167 39.5,63.5C 118.5,63.5 197.5,63.5 276.5,63.5C 276.5,193.833 276.5,324.167 276.5,454.5 Z"/></g>
<g><path style="opacity:1" fill="#ea4b51" d="M 461.5,50.5 C 462.29,51.6085 462.79,52.9419 463,54.5C 463.167,83.3333 463.333,112.167 463.5,141C 463.5,170.174 462.833,199.008 461.5,227.5C 462.806,168.559 462.806,109.559 461.5,50.5 Z"/></g>
<g><path style="opacity:1" fill="#fad1d3" d="M 414.5,51.5 C 413.502,78.6616 413.169,105.995 413.5,133.5C 414.5,133.5 415.5,133.5 416.5,133.5C 415.432,134.434 414.099,134.768 412.5,134.5C 412.167,106.492 412.5,78.4921 413.5,50.5C 414.107,50.6236 414.44,50.9569 414.5,51.5 Z"/></g>
<g><path style="opacity:1" fill="#f4a0a3" d="M 316.5,49.5 C 315.535,76.808 315.201,104.141 315.5,131.5C 314.337,105.337 314.17,79.0032 315,52.5C 315.232,51.2625 315.732,50.2625 316.5,49.5 Z"/></g>
<g><path style="opacity:1" fill="#ec5f64" d="M 336.5,57.5 C 337.498,81.3275 337.831,105.328 337.5,129.5C 339.167,129.5 340.833,129.5 342.5,129.5C 340.735,130.461 338.735,130.795 336.5,130.5C 336.5,106.167 336.5,81.8333 336.5,57.5 Z"/></g>
<g><path style="opacity:1" fill="#ed6065" d="M 377.5,50.5 C 378.833,63.9835 379.499,77.8168 379.5,92C 379.5,106.004 379.167,119.837 378.5,133.5C 378.824,105.759 378.491,78.0927 377.5,50.5 Z"/></g>
<g><path style="opacity:1" fill="#f39c9f" d="M 243.5,92.5 C 185.167,91.1667 126.833,91.1667 68.5,92.5C 67.9569,92.44 67.6236,92.1067 67.5,91.5C 126.5,90.1667 185.5,90.1667 244.5,91.5C 244.376,92.1067 244.043,92.44 243.5,92.5 Z"/></g>
<g><path style="opacity:1" fill="#fefcfc" d="M 243.5,92.5 C 241.174,98.4878 238.841,104.488 236.5,110.5C 235.338,126.995 235.172,143.662 236,160.5C 236.191,162.708 236.691,164.708 237.5,166.5C 238.169,172.835 240.503,178.502 244.5,183.5C 242.052,184.473 239.385,184.806 236.5,184.5C 235.833,184.5 235.167,184.5 234.5,184.5C 232.485,183.076 230.152,182.41 227.5,182.5C 222.418,181.75 217.751,179.917 213.5,177C 209.517,172.189 206.184,167.022 203.5,161.5C 200.647,165.187 197.314,168.353 193.5,171C 188.833,171.667 184.167,171.667 179.5,171C 169.787,166.239 167.12,158.905 171.5,149C 174.614,151.088 177.614,153.755 180.5,157C 184.175,157.913 187.508,157.247 190.5,155C 192.415,152.6 194.081,150.1 195.5,147.5C 196.485,143.366 196.818,139.032 196.5,134.5C 170.661,134.169 144.995,134.502 119.5,135.5C 119.5,154.833 119.5,174.167 119.5,193.5C 120.5,193.5 121.5,193.5 122.5,193.5C 125.219,194.913 128.219,195.58 131.5,195.5C 133.905,196.768 136.572,197.435 139.5,197.5C 142.219,198.913 145.219,199.58 148.5,199.5C 148.833,199.5 149.167,199.5 149.5,199.5C 151.838,201.04 154.505,201.706 157.5,201.5C 158.568,202.434 159.901,202.768 161.5,202.5C 165.547,204.26 169.88,205.26 174.5,205.5C 177.219,206.913 180.219,207.58 183.5,207.5C 187.547,209.26 191.88,210.26 196.5,210.5C 199.219,211.913 202.219,212.58 205.5,212.5C 206.568,213.434 207.901,213.768 209.5,213.5C 213.547,215.26 217.88,216.26 222.5,216.5C 223.568,217.434 224.901,217.768 226.5,217.5C 230.547,219.26 234.88,220.26 239.5,220.5C 240.718,221.161 242.051,221.828 243.5,222.5C 241.313,226.387 239.313,230.387 237.5,234.5C 236.167,284.167 236.167,333.833 237.5,383.5C 240.115,388.44 243.448,392.774 247.5,396.5C 243.971,398.423 239.971,399.089 235.5,398.5C 230.273,396.703 224.939,395.203 219.5,394C 190.172,424.82 154.506,436.487 112.5,429C 104.569,426.693 96.9028,423.86 89.5,420.5C 89.0269,419.094 88.0269,418.427 86.5,418.5C 47.1585,392.876 35.9919,357.876 53,313.5C 61.7389,294.914 75.5722,281.914 94.5,274.5C 98.9155,274.139 102.915,272.806 106.5,270.5C 124.728,266.057 141.728,268.89 157.5,279C 170.221,289.048 174.387,301.881 170,317.5C 164.39,327.872 155.89,334.205 144.5,336.5C 139.473,336.497 134.473,336.164 129.5,335.5C 127.554,334.746 126.721,333.412 127,331.5C 138.705,327.089 143.371,318.756 141,306.5C 133.471,294.712 122.971,290.712 109.5,294.5C 107.102,294.259 105.102,294.926 103.5,296.5C 100.243,297.462 97.2432,298.962 94.5,301C 89.5614,305.744 85.2281,310.911 81.5,316.5C 79.8749,314.079 78.5415,311.413 77.5,308.5C 56.8925,329.848 51.7258,354.514 62,382.5C 67.9592,395.957 77.4592,405.957 90.5,412.5C 90.9731,413.906 91.9731,414.573 93.5,414.5C 97.1101,415.703 100.777,416.703 104.5,417.5C 107.897,420.392 111.897,421.226 116.5,420C 112.812,418.487 109.145,416.987 105.5,415.5C 105.027,414.094 104.027,413.427 102.5,413.5C 97.1576,410.488 93.1576,406.154 90.5,400.5C 91.4246,399.438 92.4246,399.438 93.5,400.5C 94.287,402.104 95.6203,402.771 97.5,402.5C 103.967,405.125 110.633,407.459 117.5,409.5C 129.37,410.874 141.37,410.707 153.5,409C 154.056,408.617 154.389,408.117 154.5,407.5C 166.865,404.976 176.365,398.309 183,387.5C 187.186,375.878 184.019,366.878 173.5,360.5C 176.684,358.586 180.351,357.92 184.5,358.5C 184.833,358.5 185.167,358.5 185.5,358.5C 187.607,359.468 189.941,359.802 192.5,359.5C 192.5,324.5 192.5,289.5 192.5,254.5C 191.5,254.5 190.5,254.5 189.5,254.5C 183.906,253.768 178.573,252.435 173.5,250.5C 168.503,248.251 163.17,246.917 157.5,246.5C 128.528,240.089 99.8615,233.089 71.5,225.5C 70.0998,224.9 69.0998,223.9 68.5,222.5C 72.0302,217.766 74.1968,212.433 75,206.5C 75.6667,174.833 75.6667,143.167 75,111.5C 73.3908,104.954 71.2242,98.6211 68.5,92.5C 126.833,91.1667 185.167,91.1667 243.5,92.5 Z"/></g>
<g><path style="opacity:1" fill="#ea454a" d="M 348.5,50.5 C 349.498,76.6614 349.831,102.995 349.5,129.5C 347.5,129.5 345.5,129.5 343.5,129.5C 344.919,128.549 346.585,128.216 348.5,128.5C 348.5,102.5 348.5,76.5 348.5,50.5 Z"/></g>
<g><path style="opacity:1" fill="#f49a9d" d="M 416.5,51.5 C 417.833,51.5 419.167,51.5 420.5,51.5C 420.831,78.6718 420.498,105.672 419.5,132.5C 419.5,105.833 419.5,79.1667 419.5,52.5C 418.209,52.7373 417.209,52.404 416.5,51.5 Z"/></g>
<g><path style="opacity:1" fill="#ee6e72" d="M 483.5,40.5 C 483.5,106.833 483.5,173.167 483.5,239.5C 487.5,239.5 491.5,239.5 495.5,239.5C 491.366,240.485 487.032,240.818 482.5,240.5C 482.168,173.665 482.501,106.998 483.5,40.5 Z"/></g>
<g><path style="opacity:1" fill="#f8c4c6" d="M 236.5,110.5 C 236.262,129.185 236.596,147.851 237.5,166.5C 236.691,164.708 236.191,162.708 236,160.5C 235.172,143.662 235.338,126.995 236.5,110.5 Z"/></g>
<g><path style="opacity:1" fill="#f7b1b3" d="M 433.5,129.5 C 433.435,132.428 432.768,135.095 431.5,137.5C 431.294,134.505 431.96,131.838 433.5,129.5 Z"/></g>
<g><path style="opacity:1" fill="#f39093" d="M 119.5,135.5 C 144.995,134.502 170.661,134.169 196.5,134.5C 196.818,139.032 196.485,143.366 195.5,147.5C 195.5,143.5 195.5,139.5 195.5,135.5C 170.167,135.5 144.833,135.5 119.5,135.5 Z"/></g>
<g><path style="opacity:1" fill="#ed5a5a" d="M 320.5,140.5 C 324.126,142.37 327.792,144.037 331.5,145.5C 326.955,145.55 323.289,143.883 320.5,140.5 Z"/></g>
<g><path style="opacity:1" fill="#f9c1c3" d="M 419.5,146.5 C 420.498,173.328 420.831,200.328 420.5,227.5C 417.833,227.5 415.167,227.5 412.5,227.5C 412.5,200.167 412.5,172.833 412.5,145.5C 415.059,145.198 417.393,145.532 419.5,146.5 Z"/></g>
<g><path style="opacity:1" fill="#fefefe" d="M 419.5,146.5 C 419.5,173.167 419.5,199.833 419.5,226.5C 417.5,226.5 415.5,226.5 413.5,226.5C 413.5,199.833 413.5,173.167 413.5,146.5C 415.5,146.5 417.5,146.5 419.5,146.5 Z"/></g>
<g><path style="opacity:1" fill="#f7afb1" d="M 503.5,146.5 C 501.167,146.5 498.833,146.5 496.5,146.5C 496.5,151.5 496.5,156.5 496.5,161.5C 495.512,156.36 495.179,151.026 495.5,145.5C 498.385,145.194 501.052,145.527 503.5,146.5 Z"/></g>
<g><path style="opacity:1" fill="#f6b1b4" d="M 348.5,145.5 C 349.268,146.263 349.768,147.263 350,148.5C 350.83,174.337 350.663,200.003 349.5,225.5C 349.798,198.808 349.465,172.141 348.5,145.5 Z"/></g>
<g><path style="opacity:1" fill="#ed6165" d="M 503.5,146.5 C 504.498,177.329 504.831,208.329 504.5,239.5C 508.5,239.5 512.5,239.5 516.5,239.5C 512.366,240.485 508.032,240.818 503.5,240.5C 503.5,209.167 503.5,177.833 503.5,146.5 Z"/></g>
<g><path style="opacity:1" fill="#f59d9f" d="M 227.5,182.5 C 230.152,182.41 232.485,183.076 234.5,184.5C 231.848,184.59 229.515,183.924 227.5,182.5 Z"/></g>
<g><path style="opacity:1" fill="#f8afb0" d="M 244.5,183.5 C 247.831,184.573 247.998,185.573 245,186.5C 241.973,186.088 239.14,185.421 236.5,184.5C 239.385,184.806 242.052,184.473 244.5,183.5 Z"/></g>
<g><path style="opacity:1" fill="#f07678" d="M 122.5,193.5 C 125.781,193.42 128.781,194.087 131.5,195.5C 128.219,195.58 125.219,194.913 122.5,193.5 Z"/></g>
<g><path style="opacity:1" fill="#f07376" d="M 139.5,197.5 C 142.781,197.42 145.781,198.087 148.5,199.5C 145.219,199.58 142.219,198.913 139.5,197.5 Z"/></g>
<g><path style="opacity:1" fill="#f39c9f" d="M 370.5,146.5 C 373.167,145.167 375.833,145.167 378.5,146.5C 378.5,177.5 378.5,208.5 378.5,239.5C 377.502,208.671 377.169,177.671 377.5,146.5C 375.167,146.5 372.833,146.5 370.5,146.5 Z"/></g>
<g><path style="opacity:1" fill="#ee5f5e" d="M 390.5,50.5 C 391.665,113.332 391.832,176.332 391,239.5C 386.733,240.822 382.566,240.822 378.5,239.5C 378.5,208.5 378.5,177.5 378.5,146.5C 379.498,176.995 379.831,207.662 379.5,238.5C 383.167,238.5 386.833,238.5 390.5,238.5C 390.5,175.833 390.5,113.167 390.5,50.5 Z"/></g>
<g><path style="opacity:1" fill="#ef6b6d" d="M 149.5,199.5 C 152.495,199.294 155.162,199.96 157.5,201.5C 154.505,201.706 151.838,201.04 149.5,199.5 Z"/></g>
<g><path style="opacity:1" fill="#f17a7d" d="M 161.5,202.5 C 166.12,202.74 170.453,203.74 174.5,205.5C 169.88,205.26 165.547,204.26 161.5,202.5 Z"/></g>
<g><path style="opacity:1" fill="#f07679" d="M 174.5,205.5 C 177.781,205.42 180.781,206.087 183.5,207.5C 180.219,207.58 177.219,206.913 174.5,205.5 Z"/></g>
<g><path style="opacity:1" fill="#f0777a" d="M 183.5,207.5 C 188.12,207.74 192.453,208.74 196.5,210.5C 191.88,210.26 187.547,209.26 183.5,207.5 Z"/></g>
<g><path style="opacity:1" fill="#f07578" d="M 196.5,210.5 C 199.781,210.42 202.781,211.087 205.5,212.5C 202.219,212.58 199.219,211.913 196.5,210.5 Z"/></g>
<g><path style="opacity:1" fill="#f17a7d" d="M 209.5,213.5 C 214.12,213.74 218.453,214.74 222.5,216.5C 217.88,216.26 213.547,215.26 209.5,213.5 Z"/></g>
<g><path style="opacity:1" fill="#f17c7e" d="M 226.5,217.5 C 231.12,217.74 235.453,218.74 239.5,220.5C 234.88,220.26 230.547,219.26 226.5,217.5 Z"/></g>
<g><path style="opacity:1" fill="#f39395" d="M 68.5,222.5 C 69.0998,223.9 70.0998,224.9 71.5,225.5C 70.1667,225.5 68.8333,225.5 67.5,225.5C 67.2627,224.209 67.596,223.209 68.5,222.5 Z"/></g>
<g><path style="opacity:1" fill="#f7afb0" d="M 157.5,246.5 C 163.17,246.917 168.503,248.251 173.5,250.5C 167.906,249.768 162.573,248.435 157.5,246.5 Z"/></g>
<g><path style="opacity:1" fill="#ec5f64" d="M 189.5,254.5 C 190.5,254.5 191.5,254.5 192.5,254.5C 192.5,289.5 192.5,324.5 192.5,359.5C 189.941,359.802 187.607,359.468 185.5,358.5C 187.5,358.5 189.5,358.5 191.5,358.5C 192.149,323.611 191.483,288.945 189.5,254.5 Z"/></g>
<g><path style="opacity:1" fill="#e52428" d="M 351.5,257.5 C 355.069,259.441 358.735,259.774 362.5,258.5C 372.596,255.406 380.429,258.406 386,267.5C 386.5,330.832 386.667,394.166 386.5,457.5C 382.5,457.5 378.5,457.5 374.5,457.5C 374.833,395.163 374.5,332.83 373.5,270.5C 371.298,269.22 369.132,269.22 367,270.5C 366.5,332.832 366.333,395.166 366.5,457.5C 362.167,457.5 357.833,457.5 353.5,457.5C 353.667,395.499 353.5,333.499 353,271.5C 351.556,269.845 349.722,269.178 347.5,269.5C 346.883,269.611 346.383,269.944 346,270.5C 345.5,332.832 345.333,395.166 345.5,457.5C 341.19,458.08 336.857,458.414 332.5,458.5C 332.5,457.5 332.5,456.5 332.5,455.5C 332.333,395.499 332.5,335.499 333,275.5C 333.363,272.456 333.863,269.456 334.5,266.5C 338.034,259.566 343.7,256.566 351.5,257.5 Z"/></g>
<g><path style="opacity:1" fill="#f39294" d="M 351.5,257.5 C 355.154,257.942 358.821,258.276 362.5,258.5C 358.735,259.774 355.069,259.441 351.5,257.5 Z"/></g>
<g><path style="opacity:1" fill="#e52127" d="M 497.5,258.5 C 504.226,260.047 509.06,264.047 512,270.5C 512.667,297.167 512.667,323.833 512,350.5C 510.254,354.791 510.087,359.125 511.5,363.5C 512.485,394.79 512.818,426.123 512.5,457.5C 508.167,457.5 503.833,457.5 499.5,457.5C 499.5,438.5 499.5,419.5 499.5,400.5C 499.5,388.5 499.5,376.5 499.5,364.5C 496.833,364.5 494.167,364.5 491.5,364.5C 491.5,395.833 491.5,427.167 491.5,458.5C 487.5,458.5 483.5,458.5 479.5,458.5C 479.5,391.833 479.5,325.167 479.5,258.5C 485.5,258.5 491.5,258.5 497.5,258.5 Z"/></g>
<g><path style="opacity:1" fill="#e51d24" d="M 574.5,270.5 C 574.5,332.5 574.5,394.5 574.5,456.5C 570.833,456.5 567.167,456.5 563.5,456.5C 564.159,425.482 563.492,394.815 561.5,364.5C 559.167,364.5 556.833,364.5 554.5,364.5C 554.5,395.5 554.5,426.5 554.5,457.5C 550.367,458.726 546.367,458.726 542.5,457.5C 542.181,393.811 542.514,330.144 543.5,266.5C 550.905,256.415 559.905,254.915 570.5,262C 572.782,264.397 574.116,267.231 574.5,270.5 Z"/></g>
<g><path style="opacity:1" fill="#e51b23" d="M 584.5,258.5 C 588.167,258.5 591.833,258.5 595.5,258.5C 595.168,321.336 595.501,384.002 596.5,446.5C 599.833,446.5 603.167,446.5 606.5,446.5C 606.5,450.167 606.5,453.833 606.5,457.5C 599.167,457.5 591.833,457.5 584.5,457.5C 584.5,391.167 584.5,324.833 584.5,258.5 Z"/></g>
<g><path style="opacity:1" fill="#f2979a" d="M 324.5,457.5 C 324.832,391.331 324.499,325.331 323.5,259.5C 319.5,259.5 315.5,259.5 311.5,259.5C 311.5,325.167 311.5,390.833 311.5,456.5C 311.5,456.833 311.5,457.167 311.5,457.5C 310.501,391.335 310.168,325.002 310.5,258.5C 315.5,258.5 320.5,258.5 325.5,258.5C 325.832,325.002 325.499,391.335 324.5,457.5 Z"/></g>
<g><path style="opacity:1" fill="#e51b23" d="M 323.5,259.5 C 323.5,325.167 323.5,390.833 323.5,456.5C 319.5,456.5 315.5,456.5 311.5,456.5C 311.5,390.833 311.5,325.167 311.5,259.5C 315.5,259.5 319.5,259.5 323.5,259.5 Z"/></g>
<g><path style="opacity:1" fill="#f08084" d="M 417.5,259.5 C 410.167,259.5 402.833,259.5 395.5,259.5C 395.5,325.5 395.5,391.5 395.5,457.5C 399.5,457.5 403.5,457.5 407.5,457.5C 403.366,458.485 399.032,458.818 394.5,458.5C 394.5,391.833 394.5,325.167 394.5,258.5C 402.352,258.175 410.018,258.508 417.5,259.5 Z"/></g>
<g><path style="opacity:1" fill="#e52126" d="M 417.5,259.5 C 423.283,261.453 426.783,265.453 428,271.5C 428.667,299.833 428.667,328.167 428,356.5C 426.89,363.44 423.057,368.107 416.5,370.5C 413.5,370.5 410.5,370.5 407.5,370.5C 407.5,399.5 407.5,428.5 407.5,457.5C 403.5,457.5 399.5,457.5 395.5,457.5C 395.5,391.5 395.5,325.5 395.5,259.5C 402.833,259.5 410.167,259.5 417.5,259.5 Z"/></g>
<g><path style="opacity:1" fill="#e51b23" d="M 470.5,259.5 C 470.5,287.5 470.5,315.5 470.5,343.5C 466.5,343.5 462.5,343.5 458.5,343.5C 458.831,318.994 458.498,294.661 457.5,270.5C 455.052,269.527 452.385,269.194 449.5,269.5C 449.5,297.167 449.5,324.833 449.5,352.5C 456.5,352.5 463.5,352.5 470.5,352.5C 470.5,356.167 470.5,359.833 470.5,363.5C 468.901,363.232 467.568,363.566 466.5,364.5C 460.833,364.5 455.167,364.5 449.5,364.5C 449.5,391.833 449.5,419.167 449.5,446.5C 452.385,446.806 455.052,446.473 457.5,445.5C 458.498,421.339 458.831,397.006 458.5,372.5C 462.5,372.5 466.5,372.5 470.5,372.5C 470.5,400.833 470.5,429.167 470.5,457.5C 459.5,457.5 448.5,457.5 437.5,457.5C 437.5,391.5 437.5,325.5 437.5,259.5C 448.5,259.5 459.5,259.5 470.5,259.5 Z"/></g>
<g><path style="opacity:1" fill="#e51e25" d="M 520.5,259.5 C 524.833,259.5 529.167,259.5 533.5,259.5C 533.5,325.5 533.5,391.5 533.5,457.5C 529.167,457.5 524.833,457.5 520.5,457.5C 520.5,391.5 520.5,325.5 520.5,259.5 Z"/></g>
<g><path style="opacity:1" fill="#fefefe" d="M 562.5,351.5 C 560.167,351.5 557.833,351.5 555.5,351.5C 555.5,324.5 555.5,297.5 555.5,270.5C 558.193,267.566 560.359,267.9 562,271.5C 562.5,298.165 562.667,324.831 562.5,351.5 Z"/></g>
<g><path style="opacity:1" fill="#f8c6c7" d="M 497.5,270.5 C 495.833,270.5 494.167,270.5 492.5,270.5C 492.5,297.5 492.5,324.5 492.5,351.5C 491.502,324.338 491.169,297.005 491.5,269.5C 493.735,269.205 495.735,269.539 497.5,270.5 Z"/></g>
<g><path style="opacity:1" fill="#fefefe" d="M 497.5,270.5 C 499.478,297.274 500.144,324.274 499.5,351.5C 496.959,352.103 494.626,352.103 492.5,351.5C 492.5,324.5 492.5,297.5 492.5,270.5C 494.167,270.5 495.833,270.5 497.5,270.5 Z"/></g>
<g><path style="opacity:1" fill="#fefdfd" d="M 411.5,270.5 C 413.099,270.232 414.432,270.566 415.5,271.5C 415.667,300.169 415.5,328.835 415,357.5C 413.698,358.085 412.531,358.751 411.5,359.5C 410.391,359.443 409.391,359.11 408.5,358.5C 408.5,329.167 408.5,299.833 408.5,270.5C 409.5,270.5 410.5,270.5 411.5,270.5 Z"/></g>
<g><path style="opacity:1" fill="#f8c9cb" d="M 347.5,269.5 C 346.84,332.294 346.174,394.961 345.5,457.5C 345.333,395.166 345.5,332.832 346,270.5C 346.383,269.944 346.883,269.611 347.5,269.5 Z"/></g>
<g><path style="opacity:1" fill="#ea494e" d="M 583.5,258.5 C 587.634,257.515 591.968,257.182 596.5,257.5C 596.5,320.167 596.5,382.833 596.5,445.5C 596.5,445.833 596.5,446.167 596.5,446.5C 595.501,384.002 595.168,321.336 595.5,258.5C 591.833,258.5 588.167,258.5 584.5,258.5C 584.167,258.5 583.833,258.5 583.5,258.5 Z"/></g>
<g><path style="opacity:1" fill="#f9adae" d="M 106.5,270.5 C 102.915,272.806 98.9155,274.139 94.5,274.5C 98.0983,272.26 102.098,270.926 106.5,270.5 Z"/></g>
<g><path style="opacity:1" fill="#e8383f" d="M 583.5,258.5 C 583.833,258.5 584.167,258.5 584.5,258.5C 584.5,324.833 584.5,391.167 584.5,457.5C 591.833,457.5 599.167,457.5 606.5,457.5C 606.5,457.833 606.5,458.167 606.5,458.5C 598.833,458.5 591.167,458.5 583.5,458.5C 583.5,391.833 583.5,325.167 583.5,258.5 Z"/></g>
<g><path style="opacity:1" fill="#ed5755" d="M 543.5,266.5 C 542.514,330.144 542.181,393.811 542.5,457.5C 541.778,457.082 541.278,456.416 541,455.5C 540.333,394.833 540.333,334.167 541,273.5C 541.39,270.896 542.224,268.562 543.5,266.5 Z"/></g>
<g><path style="opacity:1" fill="#e93b3d" d="M 574.5,270.5 C 575.499,332.664 575.832,394.998 575.5,457.5C 570.833,457.5 566.167,457.5 561.5,457.5C 561.5,426.833 561.5,396.167 561.5,365.5C 561.5,365.167 561.5,364.833 561.5,364.5C 563.492,394.815 564.159,425.482 563.5,456.5C 567.167,456.5 570.833,456.5 574.5,456.5C 574.5,394.5 574.5,332.5 574.5,270.5 Z"/></g>
<g><path style="opacity:1" fill="#f28b8e" d="M 334.5,266.5 C 333.863,269.456 333.363,272.456 333,275.5C 332.5,335.499 332.333,395.499 332.5,455.5C 331.335,394.335 331.168,333.001 332,271.5C 332.099,269.347 332.933,267.681 334.5,266.5 Z"/></g>
<g><path style="opacity:1" fill="#fad7d8" d="M 411.5,270.5 C 410.5,270.5 409.5,270.5 408.5,270.5C 408.5,299.833 408.5,329.167 408.5,358.5C 407.502,329.005 407.169,299.338 407.5,269.5C 409.099,269.232 410.432,269.566 411.5,270.5 Z"/></g>
<g><path style="opacity:1" fill="#ee7075" d="M 415.5,271.5 C 416.664,300.33 416.83,329.33 416,358.5C 414.644,359.38 413.144,359.714 411.5,359.5C 412.531,358.751 413.698,358.085 415,357.5C 415.5,328.835 415.667,300.169 415.5,271.5 Z"/></g>
<g><path style="opacity:1" fill="#f4a2a5" d="M 520.5,259.5 C 524.97,258.514 529.637,258.181 534.5,258.5C 534.832,325.002 534.499,391.335 533.5,457.5C 533.5,391.5 533.5,325.5 533.5,259.5C 529.167,259.5 524.833,259.5 520.5,259.5 Z"/></g>
<g><path style="opacity:1" fill="#fadadb" d="M 555.5,270.5 C 555.5,297.5 555.5,324.5 555.5,351.5C 557.833,351.5 560.167,351.5 562.5,351.5C 560.052,352.473 557.385,352.806 554.5,352.5C 554.169,324.995 554.502,297.662 555.5,270.5 Z"/></g>
<g><path style="opacity:1" fill="#f06d6c" d="M 109.5,294.5 C 107.898,296.074 105.898,296.741 103.5,296.5C 105.102,294.926 107.102,294.259 109.5,294.5 Z"/></g>
<g><path style="opacity:1" fill="#ee6e73" d="M 457.5,270.5 C 458.498,294.661 458.831,318.994 458.5,343.5C 462.5,343.5 466.5,343.5 470.5,343.5C 466.366,344.485 462.032,344.818 457.5,344.5C 457.5,319.833 457.5,295.167 457.5,270.5 Z"/></g>
<g><path style="opacity:1" fill="#eb575c" d="M 470.5,259.5 C 459.5,259.5 448.5,259.5 437.5,259.5C 437.5,325.5 437.5,391.5 437.5,457.5C 436.501,391.335 436.168,325.002 436.5,258.5C 448.012,258.172 459.346,258.505 470.5,259.5 Z"/></g>
<g><path style="opacity:1" fill="#f39397" d="M 457.5,270.5 C 455.167,270.5 452.833,270.5 450.5,270.5C 450.5,297.5 450.5,324.5 450.5,351.5C 457.354,351.176 464.021,351.509 470.5,352.5C 463.5,352.5 456.5,352.5 449.5,352.5C 449.5,324.833 449.5,297.167 449.5,269.5C 452.385,269.194 455.052,269.527 457.5,270.5 Z"/></g>
<g><path style="opacity:1" fill="#f0797d" d="M 129.5,335.5 C 134.473,336.164 139.473,336.497 144.5,336.5C 142.866,337.161 141.033,337.494 139,337.5C 135.549,337.579 132.382,336.913 129.5,335.5 Z"/></g>
<g><path style="opacity:1" fill="#ee686d" d="M 497.5,258.5 C 491.5,258.5 485.5,258.5 479.5,258.5C 479.5,325.167 479.5,391.833 479.5,458.5C 478.501,391.669 478.168,324.669 478.5,257.5C 485.022,257.177 491.355,257.51 497.5,258.5 Z"/></g>
<g><path style="opacity:1" fill="#f18a8e" d="M 184.5,358.5 C 180.351,357.92 176.684,358.586 173.5,360.5C 172.596,359.791 172.263,358.791 172.5,357.5C 176.702,357.183 180.702,357.517 184.5,358.5 Z"/></g>
<g><path style="opacity:1" fill="#f8c6c8" d="M 499.5,400.5 C 498.505,389.012 498.172,377.345 498.5,365.5C 496.5,365.5 494.5,365.5 492.5,365.5C 492.831,396.671 492.498,427.671 491.5,458.5C 491.5,427.167 491.5,395.833 491.5,364.5C 494.167,364.5 496.833,364.5 499.5,364.5C 499.5,376.5 499.5,388.5 499.5,400.5 Z"/></g>
<g><path style="opacity:1" fill="#f9d0d2" d="M 561.5,364.5 C 561.5,364.833 561.5,365.167 561.5,365.5C 559.5,365.5 557.5,365.5 555.5,365.5C 555.831,396.338 555.498,427.005 554.5,457.5C 554.5,426.5 554.5,395.5 554.5,364.5C 556.833,364.5 559.167,364.5 561.5,364.5 Z"/></g>
<g><path style="opacity:1" fill="#e62931" d="M 323.5,259.5 C 324.499,325.331 324.832,391.331 324.5,457.5C 320.167,457.5 315.833,457.5 311.5,457.5C 311.5,457.167 311.5,456.833 311.5,456.5C 315.5,456.5 319.5,456.5 323.5,456.5C 323.5,390.833 323.5,325.167 323.5,259.5 Z"/></g>
<g><path style="opacity:1" fill="#fad2d4" d="M 511.5,363.5 C 512.117,363.611 512.617,363.944 513,364.5C 513.831,395.669 513.664,426.669 512.5,457.5C 512.818,426.123 512.485,394.79 511.5,363.5 Z"/></g>
<g><path style="opacity:1" fill="#f5b0b2" d="M 416.5,370.5 C 414.052,371.473 411.385,371.806 408.5,371.5C 408.831,400.338 408.498,429.005 407.5,457.5C 407.5,428.5 407.5,399.5 407.5,370.5C 410.5,370.5 413.5,370.5 416.5,370.5 Z"/></g>
<g><path style="opacity:1" fill="#ef7277" d="M 470.5,372.5 C 466.5,372.5 462.5,372.5 458.5,372.5C 458.831,397.006 458.498,421.339 457.5,445.5C 457.5,420.833 457.5,396.167 457.5,371.5C 462.032,371.182 466.366,371.515 470.5,372.5 Z"/></g>
<g><path style="opacity:1" fill="#f28e92" d="M 466.5,364.5 C 461.36,365.488 456.026,365.821 450.5,365.5C 450.5,392.167 450.5,418.833 450.5,445.5C 452.833,445.5 455.167,445.5 457.5,445.5C 455.052,446.473 452.385,446.806 449.5,446.5C 449.5,419.167 449.5,391.833 449.5,364.5C 455.167,364.5 460.833,364.5 466.5,364.5 Z"/></g>
<g><path style="opacity:1" fill="#ed6165" d="M 247.5,396.5 C 248.404,397.209 248.737,398.209 248.5,399.5C 243.968,399.818 239.634,399.485 235.5,398.5C 239.971,399.089 243.971,398.423 247.5,396.5 Z"/></g>
<g><path style="opacity:1" fill="#f3898b" d="M 93.5,400.5 C 95.153,400.66 96.4863,401.326 97.5,402.5C 95.6203,402.771 94.287,402.104 93.5,400.5 Z"/></g>
<g><path style="opacity:1" fill="#f8adad" d="M 154.5,407.5 C 154.389,408.117 154.056,408.617 153.5,409C 141.37,410.707 129.37,410.874 117.5,409.5C 129.912,409.917 142.245,409.251 154.5,407.5 Z"/></g>
<g><path style="opacity:1" fill="#f49091" d="M 90.5,412.5 C 92.0269,412.427 93.0269,413.094 93.5,414.5C 91.9731,414.573 90.9731,413.906 90.5,412.5 Z"/></g>
<g><path style="opacity:1" fill="#f48d8e" d="M 102.5,413.5 C 104.027,413.427 105.027,414.094 105.5,415.5C 103.973,415.573 102.973,414.906 102.5,413.5 Z"/></g>
<g><path style="opacity:1" fill="#ec5553" d="M 105.5,415.5 C 109.145,416.987 112.812,418.487 116.5,420C 111.897,421.226 107.897,420.392 104.5,417.5C 105.338,417.158 105.672,416.492 105.5,415.5 Z"/></g>
<g><path style="opacity:1" fill="#f28385" d="M 86.5,418.5 C 88.0269,418.427 89.0269,419.094 89.5,420.5C 87.9731,420.573 86.9731,419.906 86.5,418.5 Z"/></g>
<g><path style="opacity:1" fill="#f6b2b5" d="M 276.5,454.5 C 237.339,455.833 197.839,456.5 158,456.5C 118.332,456.5 78.8319,456.167 39.5,455.5C 118.571,455.83 197.571,455.497 276.5,454.5 Z"/></g>
<g><path style="opacity:1" fill="#f07477" d="M 596.5,446.5 C 596.5,446.167 596.5,445.833 596.5,445.5C 600.167,445.5 603.833,445.5 607.5,445.5C 607.818,450.032 607.485,454.366 606.5,458.5C 606.5,458.167 606.5,457.833 606.5,457.5C 606.5,453.833 606.5,450.167 606.5,446.5C 603.167,446.5 599.833,446.5 596.5,446.5 Z"/></g>
</svg>
