<?xml version="1.0" standalone="no"?>
<!DOCTYPE svg PUBLIC "-//W3C//DTD SVG 20010904//EN"
 "http://www.w3.org/TR/2001/REC-SVG-20010904/DTD/svg10.dtd">
<svg version="1.0" xmlns="http://www.w3.org/2000/svg"
 width="410.949121pt" height="302.664369pt" viewBox="0 0 410.949121 302.664369"
 preserveAspectRatio="xMidYMid meet">
<metadata>
Created by potrace 1.12, written by Peter Selinger 2001-2015
</metadata>
<g transform="translate(-40.177596,349.543639) scale(0.100000,-0.100000)"
fill="#000000" stroke="none">
<path d="M2481 3487 c-19 -7 -44 -25 -55 -40 -20 -27 -21 -42 -24 -315 -2
-247 -1 -292 13 -323 17 -37 59 -69 92 -69 11 0 27 -8 36 -18 15 -16 17 -52
17 -291 0 -169 -4 -280 -10 -292 -14 -25 -46 -25 -60 0 -6 12 -10 123 -10 291
l0 271 -37 -3 -38 -3 -3 -270 c-2 -237 0 -275 15 -308 36 -81 144 -91 198 -19
19 25 20 45 23 307 4 316 -1 344 -57 382 -19 13 -44 23 -57 23 -13 0 -28 9
-34 19 -6 12 -10 123 -10 289 0 250 1 271 19 293 19 23 19 24 40 5 20 -19 21
-28 21 -293 l0 -274 38 3 37 3 3 261 c3 283 -3 322 -48 355 -35 25 -69 30
-109 16z"/>
<path d="M2793 3493 c-12 -2 -36 -20 -53 -39 l-30 -35 2 -681 3 -682 35 0 35
0 5 340 5 339 30 0 30 0 5 -339 5 -340 35 0 35 0 0 687 0 687 -30 29 c-30 29
-72 42 -112 34z m67 -383 l0 -300 -35 0 -35 0 0 300 c0 273 2 300 17 309 11 6
24 6 35 0 17 -9 18 -33 18 -309z"/>
<path d="M3392 3489 c-20 -6 -40 -22 -52 -42 -19 -31 -20 -54 -20 -681 l0
-648 34 -34 c28 -28 41 -34 78 -34 52 0 85 21 104 66 19 46 21 1276 1 1313
-26 52 -87 77 -145 60z m62 -75 c14 -14 16 -83 14 -646 -3 -568 -5 -632 -19
-641 -9 -6 -24 -7 -33 -4 -15 6 -16 63 -16 645 0 633 1 662 31 662 4 0 15 -7
23 -16z"/>
<path d="M3010 2777 c0 -394 3 -718 8 -720 4 -2 45 -1 90 2 78 6 86 8 108 36
l24 30 0 302 c0 210 -4 310 -12 328 -9 19 -9 28 0 37 9 9 12 98 12 320 l0 308
-29 32 c-28 32 -33 33 -115 37 l-86 3 0 -715z m138 635 c9 -7 12 -74 10 -303
l-3 -294 -27 -3 -28 -3 0 305 c0 285 1 306 18 306 9 0 23 -4 30 -8z m1 -686
c8 -9 11 -97 9 -302 l-3 -289 -27 -3 -28 -3 0 299 c0 164 3 302 7 305 11 11
30 8 42 -7z"/>
<path d="M3622 2773 l3 -717 35 0 35 0 3 338 c2 360 3 362 51 336 21 -10 21
-17 21 -339 l0 -329 36 -4 c21 -2 38 0 40 7 3 6 3 164 0 350 -5 411 -5 322 0
681 3 188 1 311 -5 328 -17 44 -66 66 -149 66 l-72 0 2 -717z m137 633 c8 -9
11 -97 9 -302 l-3 -289 -30 0 -30 0 -3 290 c-1 159 0 295 3 302 6 17 40 16 54
-1z"/>
<path d="M405 3307 c-3 -6 -4 -644 -3 -1417 l3 -1405 850 0 850 0 0 1415 0
1415 -848 2 c-665 2 -849 0 -852 -10z m1477 -183 c4 -3 -6 -31 -20 -62 -27
-56 -27 -60 -27 -272 0 -118 4 -232 8 -252 4 -21 21 -51 37 -67 17 -16 27 -32
23 -34 -15 -9 -149 15 -193 34 -56 25 -77 44 -102 93 l-20 38 -26 -25 c-44
-40 -70 -50 -120 -42 -33 5 -55 16 -80 41 -31 31 -34 39 -29 75 8 61 21 68 56
31 32 -35 64 -41 97 -17 27 18 46 65 42 101 l-3 29 -272 3 -273 2 0 -204 0
-205 38 -10 c20 -6 69 -17 107 -26 39 -8 108 -24 155 -35 125 -29 381 -87 490
-111 52 -12 99 -25 103 -29 5 -4 -2 -27 -15 -51 l-23 -44 -3 -520 c-2 -286 0
-534 3 -551 3 -18 24 -53 47 -79 l42 -47 -75 4 c-41 2 -88 11 -106 20 l-32 16
-45 -43 c-108 -105 -230 -173 -378 -214 -153 -43 -371 -25 -503 41 -157 79
-281 216 -331 368 -40 123 -10 365 62 488 66 113 240 233 380 262 81 17 217 8
276 -18 105 -46 188 -158 188 -252 -1 -84 -62 -171 -146 -206 -61 -26 -194
-14 -194 16 0 5 18 19 40 30 47 24 70 64 70 121 0 36 -6 48 -40 80 -91 87
-260 52 -351 -74 -34 -47 -52 -53 -57 -19 -5 31 -16 28 -49 -15 -78 -102 -106
-180 -106 -298 0 -203 113 -358 316 -434 80 -29 93 -26 27 8 -53 27 -133 112
-113 118 6 2 32 -6 59 -18 102 -44 146 -53 254 -53 201 2 336 69 368 185 13
49 -7 105 -52 145 -20 17 -36 35 -36 39 0 4 34 5 75 3 l75 -5 0 372 0 372 -82
22 c-46 11 -195 48 -333 81 -345 83 -488 119 -493 124 -2 3 5 17 16 31 39 49
44 111 40 475 l-3 345 -27 59 c-16 32 -28 60 -28 62 0 6 1286 4 1292 -2z"/>
<path d="M2582 1890 c-18 -11 -37 -32 -42 -46 -6 -15 -10 -286 -10 -700 l0
-675 35 3 36 3 -1 661 c0 641 0 662 19 685 16 20 23 22 38 13 17 -11 18 -47
21 -688 l2 -676 40 0 40 0 2 676 c3 619 4 678 20 687 12 8 21 7 32 -2 14 -12
16 -85 16 -687 l0 -674 40 0 40 0 0 675 c0 744 2 718 -61 751 -22 11 -43 14
-68 9 -44 -8 -74 -8 -126 0 -30 4 -48 1 -73 -15z"/>
<path d="M4114 1900 c-12 -4 -31 -21 -43 -36 -21 -27 -21 -27 -21 -711 l0
-684 36 3 35 3 0 325 c0 179 3 331 8 338 5 8 21 12 37 10 l29 -3 3 -338 2
-337 40 0 40 0 -2 683 c-3 664 -4 683 -23 709 -33 44 -88 59 -141 38z m76 -80
c7 -12 9 -120 8 -307 l-3 -288 -31 -3 c-22 -2 -33 2 -38 13 -3 9 -5 144 -3
301 2 240 4 286 17 294 23 15 38 12 50 -10z"/>
<path d="M2380 1185 l0 -715 40 0 40 0 0 715 0 715 -40 0 -40 0 0 -715z"/>
<path d="M2980 1185 l0 -715 40 0 40 0 2 312 3 312 45 8 c31 5 53 17 73 38
l27 30 0 331 0 331 -34 34 c-33 33 -36 34 -115 34 l-81 0 0 -715z m145 321 c0
-283 -2 -320 -16 -329 -9 -6 -24 -7 -33 -4 -14 6 -16 39 -16 325 0 175 3 322
7 326 4 4 19 6 33 4 l25 -3 0 -319z"/>
<path d="M3290 1185 l0 -715 115 0 115 0 -2 302 -3 303 -37 3 -38 3 -2 -268
-3 -268 -35 0 -35 0 3 295 c2 162 7 298 10 302 4 4 36 8 72 10 65 3 65 3 65
33 l0 30 -72 3 c-66 3 -73 5 -78 25 -3 12 -4 148 -3 302 l3 280 35 0 35 0 3
-268 2 -268 38 3 37 3 3 303 2 302 -115 0 -115 0 0 -715z"/>
<path d="M3590 1185 l0 -715 40 0 40 0 0 335 c0 302 2 336 16 342 9 3 24 2 33
-4 14 -9 16 -49 19 -342 l2 -331 40 0 41 0 -5 348 c-2 191 -4 356 -4 367 0 11
2 155 4 319 5 321 3 340 -44 376 -20 16 -40 20 -103 20 l-79 0 0 -715z m145
346 c0 -260 -2 -295 -16 -304 -9 -6 -24 -7 -33 -4 -14 6 -16 37 -16 300 0 162
3 297 7 301 4 4 19 6 33 4 l25 -3 0 -294z"/>
<path d="M3890 1185 l0 -715 45 0 45 0 0 715 0 715 -45 0 -45 0 0 -715z"/>
<path d="M4350 1185 l0 -715 81 0 80 0 -3 33 c-3 29 -6 32 -40 35 l-38 3 0
680 0 679 -40 0 -40 0 0 -715z"/>
</g>
</svg>
